<svg xmlns="http://www.w3.org/2000/svg" width="87" height="44" viewBox="0 0 87 44"><path d="M4.1 27H2.94L.25 17.14h1.29l1.96 8.02h.08l2.21-8.02h1.24l2.21 8.02h.08l1.96-8.02h1.29L9.88 27H8.72l-2.27-7.79h-.08L4.1 27zm10.12-10.29h1.18v4.09h.11c.37-.81 1.14-1.29 2.27-1.29 1.56 0 2.54 1 2.54 2.73V27h-1.18v-4.48c0-1.31-.59-1.96-1.7-1.96-1.32 0-2.04.83-2.04 2.08V27h-1.18V16.71zm14.16 8.38c-.36 1.26-1.49 2.04-3.1 2.04-2.04 0-3.32-1.48-3.32-3.81 0-2.32 1.3-3.82 3.32-3.82 1.99 0 3.2 1.42 3.2 3.71v.45h-5.3v.05c.06 1.46.88 2.38 2.13 2.38.95 0 1.59-.35 1.9-1h1.17zm-5.2-2.38h4.06c-.03-1.31-.81-2.17-1.98-2.17s-1.99.86-2.08 2.17zm7-3.08h1.12v1.09h.11c.22-.72 1.07-1.22 2.04-1.22.19 0 .44.01.59.03v1.18c-.1-.03-.52-.07-.75-.07-1.12 0-1.93.75-1.93 1.79V27h-1.18v-7.37zm11.05 5.46c-.36 1.26-1.49 2.04-3.1 2.04-2.04 0-3.32-1.48-3.32-3.81 0-2.32 1.3-3.82 3.32-3.82 1.99 0 3.2 1.42 3.2 3.71v.45h-5.3v.05c.06 1.46.88 2.38 2.13 2.38.95 0 1.59-.35 1.9-1h1.17zm-5.21-2.38h4.06c-.03-1.31-.81-2.17-1.98-2.17s-1.99.86-2.08 2.17zm12.49-4.99v1.91h1.64v.98h-1.64v4.17c0 .87.33 1.24 1.09 1.24.21 0 .33-.01.55-.03v.99c-.23.04-.46.07-.69.07-1.52 0-2.13-.56-2.13-1.97v-4.47h-1.19v-.98h1.19v-1.91h1.18zm2.8 5.6c0-2.37 1.3-3.81 3.4-3.81s3.4 1.44 3.4 3.81-1.3 3.81-3.4 3.81-3.4-1.45-3.4-3.81zm5.58 0c0-1.75-.79-2.75-2.18-2.75s-2.18 1-2.18 2.75c0 1.74.79 2.75 2.18 2.75s2.18-1.01 2.18-2.75zM63.77 27v-9.86h3.77c1.81 0 2.92.95 2.92 2.46 0 1.03-.75 1.96-1.7 2.13v.11c1.35.17 2.2 1.09 2.2 2.4 0 1.74-1.24 2.77-3.34 2.77h-3.85zM65 21.39h1.97c1.49 0 2.25-.53 2.25-1.58 0-1-.71-1.59-1.93-1.59H65v3.17zm2.44 4.52c1.48 0 2.26-.6 2.26-1.74s-.81-1.72-2.38-1.72H65v3.47h2.44zM78.65 27h-1.12v-1.16h-.11c-.37.82-1.16 1.29-2.28 1.29-1.65 0-2.52-.98-2.52-2.73v-4.77h1.18v4.48c0 1.33.49 1.94 1.67 1.94 1.3 0 2.01-.77 2.01-2.06v-4.36h1.18V27zm2.17 2.62v-1c.14.03.33.03.49.03.68 0 1.05-.32 1.35-1.21l.14-.44-2.73-7.38h1.27l2.02 6.06h.11l2.02-6.06h1.25l-2.88 7.82c-.63 1.71-1.22 2.21-2.52 2.21-.15.02-.35 0-.52-.03z" fill="#fff"/><path fill="none" d="M0 0h87v44H0z"/></svg>